<?xml version="1.0" encoding="utf-8"?>
<!-- Generator: Adobe Illustrator 16.0.0, SVG Export Plug-In . SVG Version: 6.00 Build 0)  -->
<!DOCTYPE svg PUBLIC "-//W3C//DTD SVG 1.1//EN" "http://www.w3.org/Graphics/SVG/1.1/DTD/svg11.dtd">
<svg version="1.1" xmlns="http://www.w3.org/2000/svg" xmlns:xlink="http://www.w3.org/1999/xlink" x="0px" y="0px" width="3186px"
	 height="734px" viewBox="0 0 3186 734" enable-background="new 0 0 3186 734" xml:space="preserve">
<!-- <g id="Full_Shield" display="none">
	<path display="inline" d="M5.75,329.104C5.75,329.104,5.75,329.104,5.75,329.104C5.75,498.811,97.958,646.973,235,726.25
		c137.043-79.277,229.25-227.439,229.25-397.146l0,0C396.81,290.089,318.517,267.75,235,267.75
		C151.484,267.75,73.19,290.089,5.75,329.104z"/>
</g> -->
<!-- <g id="Shopping_Cart" display="none">
	<g display="inline">
		<path fill="#FFFFFF" stroke="#231F20" stroke-miterlimit="10" d="M80.039,353.133c0-2.578,0-5.155,0-7.732
			c6.126-10.507,11.663-12.722,23.391-9.073c12.857,4.001,25.648,8.219,38.509,12.214c7.163,2.226,10.989,6.905,11.778,14.356
			c0.825,7.805,1.914,15.581,2.894,23.418c25.959,2.834,51.307,5.565,76.644,8.375c37.694,4.181,75.378,8.453,113.077,12.604
			c9.688,1.067,19.528,1.608,23.63,12.842c0,2.577,0,5.154,0,7.731c-0.342,0.517-0.898,0.998-0.995,1.559
			c-3.56,20.445-7.174,40.883-10.567,61.357c-2.281,13.759-6.044,17.216-19.796,17.229c-22.33,0.022-44.66,0.006-66.991,0.006
			c-33.28,0-66.561-0.043-99.842,0.101c-2.189,0.009-5.928,1.001-6.291,2.286c-1.584,5.619-2.187,11.513-3.248,17.928
			c3.465,0,6.01,0,8.554,0c52.604,0,105.209-0.063,157.814,0.13c3.85,0.014,8.172,1.082,11.432,3.054
			c5.385,3.257,7.11,10.486,5.127,16.641c-1.923,5.967-7.649,9.843-15.065,9.855c-31.993,0.051-63.985,0.022-95.978,0.022
			c-29.201,0-58.402,0.028-87.603-0.014c-12.398-0.019-18.942-7.999-16.613-20.067c0.405-2.103,0.845-4.205,1.116-6.325
			c1.949-15.218,7.368-29.963,5.498-45.712c-1.996-16.813-3.406-33.694-5.115-50.544c-1.904-18.765-3.946-37.517-5.704-56.296
			c-0.335-3.573-1.787-5.163-5.129-6.132c-8.419-2.439-16.638-5.634-25.126-7.769C88.301,363.384,83.069,359.842,80.039,353.133z"/>
		<path fill="#FFFFFF" stroke="#231F20" stroke-miterlimit="10" d="M189.673,589.392c0.037,13.106-9.458,22.95-22.279,23.094
			c-13.235,0.15-23.08-9.634-23.089-22.945c-0.007-13.009,9.597-22.62,22.62-22.638
			C179.988,566.886,189.636,576.423,189.673,589.392z"/>
		<path fill="#FFFFFF" stroke="#231F20" stroke-miterlimit="10" d="M280.926,589.492c0.011-13.057,9.541-22.577,22.614-22.59
			c13.019-0.013,22.717,9.599,22.741,22.538c0.025,13.274-9.858,23.169-23.021,23.045
			C290.376,612.364,280.916,602.624,280.926,589.492z"/>
	</g>
</g> -->
<!-- <g id="Lock">
</g> -->
<!-- <g id="ClippedShield_1_">
	<g>
		<path fill="#609CEC" d="M87.285,250.083v-27.565c0-81.58,66.133-147.717,147.716-147.717c81.581,0,147.715,66.137,147.715,147.717
			v27.565c19.21,6.536,37.851,14.302,55.82,23.22v-50.541c0-112.41-91.126-203.536-203.535-203.536
			c-112.41,0-203.537,91.126-203.537,203.536v50.54C49.434,264.385,68.075,256.619,87.285,250.083z"/>
		<path fill="#609CEC" d="M235,230.75c-83.516,0-161.81,22.339-229.25,61.354c0,0.001,0,0.001,0,0.001
			C5.75,461.811,97.958,609.973,235,689.25c137.043-79.277,229.25-227.439,229.25-397.146C396.81,253.089,318.517,230.75,235,230.75
			z M167.394,575.485c-13.235,0.15-23.08-9.634-23.089-22.945c-0.007-13.009,9.597-22.62,22.62-22.638
			c13.063-0.017,22.711,9.521,22.749,22.489C189.71,565.498,180.216,575.342,167.394,575.485z M303.261,575.485
			c-12.885-0.121-22.345-9.861-22.335-22.993c0.011-13.057,9.541-22.577,22.614-22.59c13.019-0.013,22.717,9.599,22.741,22.538
			C326.307,565.715,316.423,575.609,303.261,575.485z M368.966,392.427c-3.56,20.445-7.174,40.883-10.567,61.357
			c-2.281,13.759-6.044,17.216-19.796,17.229c-22.33,0.022-44.66,0.006-66.991,0.006c-33.28,0-66.561-0.043-99.842,0.101
			c-2.189,0.009-5.928,1.001-6.291,2.286c-1.584,5.619-2.187,11.513-3.248,17.928c3.465,0,6.01,0,8.554,0
			c52.604,0,105.209-0.063,157.814,0.13c3.85,0.014,8.172,1.082,11.432,3.054c5.385,3.257,7.11,10.486,5.127,16.641
			c-1.923,5.967-7.649,9.843-15.065,9.855c-31.993,0.051-63.985,0.022-95.978,0.022c-29.201,0-58.402,0.028-87.603-0.014
			c-12.398-0.019-18.942-7.999-16.613-20.067c0.405-2.103,0.845-4.205,1.116-6.325c1.949-15.218,7.368-29.963,5.498-45.712
			c-1.996-16.813-3.406-33.694-5.115-50.544c-1.904-18.765-3.946-37.517-5.704-56.296c-0.335-3.573-1.787-5.163-5.129-6.132
			c-8.419-2.439-16.638-5.634-25.126-7.769c-7.138-1.794-12.37-5.336-15.4-12.045c0-2.578,0-5.155,0-7.732
			c6.126-10.507,11.663-12.722,23.391-9.073c12.857,4.001,25.648,8.219,38.509,12.214c7.163,2.226,10.989,6.905,11.778,14.356
			c0.825,7.805,1.914,15.581,2.894,23.418c25.959,2.834,51.307,5.565,76.644,8.375c37.694,4.181,75.378,8.453,113.077,12.604
			c9.688,1.067,19.528,1.608,23.63,12.842c0,2.577,0,5.154,0,7.731C369.619,391.385,369.063,391.866,368.966,392.427z"/>
	</g>
</g> -->
<g id="Text">
	<g>
		<path fill="#FFFFFF" stroke="#609CEC" stroke-width="25" stroke-linejoin="bevel" stroke-miterlimit="10" d="M545.5,550.5
			c20.5,10.5,52,21,84.5,21c35,0,53.5-14.5,53.5-36.5c0-21-16-33-56.5-47.5C571,468,534.5,437,534.5,388
			c0-57.5,48-101.5,127.5-101.5c38,0,66,8,86,17L731,365c-13.5-6.5-37.5-16-70.5-16s-49,15-49,32.5c0,21.5,19,31,62.5,47.5
			c59.5,22,87.5,53,87.5,100.5c0,56.5-43.5,104.5-136,104.5c-38.5,0-76.5-10-95.5-20.5L545.5,550.5z"/>
		<path fill="#FFFFFF" stroke="#609CEC" stroke-width="25" stroke-linejoin="bevel" stroke-miterlimit="10" d="M806.497,550.5
			c20.5,10.5,52,21,84.5,21c35,0,53.5-14.5,53.5-36.5c0-21-16-33-56.5-47.5c-56-19.5-92.5-50.5-92.5-99.5
			c0-57.5,48-101.5,127.5-101.5c38,0,66,8,86,17l-17,61.5c-13.5-6.5-37.5-16-70.5-16s-49,15-49,32.5c0,21.5,19,31,62.5,47.5
			c59.5,22,87.5,53,87.5,100.5c0,56.5-43.5,104.5-136,104.5c-38.5,0-76.5-10-95.5-20.5L806.497,550.5z"/>
		<path fill="#FFFFFF" stroke="#609CEC" stroke-width="25" stroke-linejoin="bevel" stroke-miterlimit="10" d="M1064.993,292h76.5
			v273h134v64h-210.5V292z"/>
		<path fill="#609CEC" d="M1360.785,550.5c20.5,10.5,52,21,84.5,21c35,0,53.5-14.5,53.5-36.5c0-21-16-33-56.5-47.5
			c-56-19.5-92.5-50.5-92.5-99.5c0-57.5,48-101.5,127.5-101.5c38,0,66,8,86,17l-17,61.5c-13.5-6.5-37.5-16-70.5-16s-49,15-49,32.5
			c0,21.5,19,31,62.5,47.5c59.5,22,87.5,53,87.5,100.5c0,56.5-43.5,104.5-136,104.5c-38.5,0-76.5-10-95.5-20.5L1360.785,550.5z"/>
		<path fill="#609CEC" d="M1614.783,274h76v139.5h1c8-10.5,18-18.5,30-25c11-6,25.5-9.5,39.5-9.5c48.5,0,85.5,33.5,85.5,107v143h-76
			V494.5c0-32-11-54-39.5-54c-20,0-32.5,13-38,26.5c-2,5-2.5,11.5-2.5,17v145h-76V274z"/>
		<path fill="#609CEC" d="M2140.282,504c0,89.5-63.5,130.5-129,130.5c-71.5,0-126.5-47-126.5-126s52-129.5,130.5-129.5
			C2090.282,379,2140.282,430.5,2140.282,504z M1963.282,506.5c0,42,17.5,73.5,50,73.5c29.5,0,48.5-29.5,48.5-73.5
			c0-36.5-14-73.5-48.5-73.5C1976.782,433,1963.282,470.5,1963.282,506.5z"/>
		<path fill="#609CEC" d="M2178.28,466.5c0-32-1-59.5-2-82h66l3.5,34h1c18-26,46-39.5,81.5-39.5c53.5,0,101.5,46.5,101.5,124.5
			c0,89-56.5,131-111,131c-29.5,0-52.5-12-63.5-28h-1V728h-76V466.5z M2254.28,524c0,6,0.5,11.5,1.5,16c5,20.5,22.5,36,44.5,36
			c33,0,52.5-27.5,52.5-69c0-39-17.5-68.5-51.5-68.5c-21.5,0-40.5,16-45.5,38.5c-1,4-1.5,9-1.5,13.5V524z"/>
		<path fill="#609CEC" d="M2468.276,466.5c0-32-1-59.5-2-82h66l3.5,34h1c18-26,46-39.5,81.5-39.5c53.5,0,101.5,46.5,101.5,124.5
			c0,89-56.5,131-111,131c-29.5,0-52.5-12-63.5-28h-1V728h-76V466.5z M2544.276,524c0,6,0.5,11.5,1.5,16c5,20.5,22.5,36,44.5,36
			c33,0,52.5-27.5,52.5-69c0-39-17.5-68.5-51.5-68.5c-21.5,0-40.5,16-45.5,38.5c-1,4-1.5,9-1.5,13.5V524z"/>
		<path fill="#609CEC" d="M2818.268,531c2.5,31.5,33.5,46.5,69,46.5c26,0,47-3.5,67.5-10l10,51.5c-25,10-55.5,15-88.5,15
			c-83,0-130.5-48-130.5-124.5c0-62,38.5-130.5,123.5-130.5c79,0,109,61.5,109,122c0,13-1.5,24.5-2.5,30H2818.268z M2907.768,479
			c0-18.5-8-49.5-43-49.5c-32,0-45,29-47,49.5H2907.768z"/>
		<path fill="#609CEC" d="M3014.768,465c0-36-1-59.5-2-80.5h65.5l2.5,45h2c12.5-35.5,42.5-50.5,66-50.5c7,0,10.5,0,16,1v71.5
			c-5.5-1-12-2-20.5-2c-28,0-47,15-52,38.5c-1,5-1.5,11-1.5,17v124h-76V465z"/>
	</g>
	<g>
	</g>
	<g>
	</g>
	<g>
	</g>
	<g>
	</g>
	<g>
	</g>
	<g>
	</g>
</g>
</svg>
